<svg xmlns="http://www.w3.org/2000/svg" xmlns:xlink="http://www.w3.org/1999/xlink" version="1.1" x="0px" y="0px" viewBox="0 0 100 125" style="enable-background:new 0 0 100 100;" xml:space="preserve"><g><path d="M50.0751953,90.0273438c19.3066406,0,35.0136719-15.7070312,35.0136719-35.0136719   c0-12.5780029-6.6696777-23.6239014-16.6550293-29.7984619l1.2612305-2.1848755   c0.4003906,0.1063232,0.8129883,0.1810913,1.2463379,0.1810913c2.6943359,0,4.8867188-2.1923828,4.8867188-4.887207   c0-2.6943359-2.1923828-4.8867188-4.8867188-4.8867188c-2.6953125,0-4.8876953,2.1923828-4.8876953,4.8867188   c0,1.5432739,0.7331543,2.9051514,1.8538818,3.8014526l-1.2022705,2.0830078   c-2.793457-1.5140991-5.817627-2.651001-9.0008545-3.3614502c0.9628906-0.664917,1.59729-1.7736206,1.59729-3.0298462v-4.1074219   c0-2.0307617-1.6523438-3.6826172-3.6826172-3.6826172H44.53125c-2.0302734,0-3.6826172,1.6518555-3.6826172,3.6826172v4.1079102   c0,1.2559204,0.6342773,2.364502,1.597168,3.0293579c-3.1833496,0.7105103-6.2075195,1.8474731-9.0010986,3.3616333   l-1.2026367-2.083252c1.1204834-0.8963623,1.8536377-2.2581177,1.8536377-3.8013916   c0-2.6943359-2.1923828-4.8867188-4.8867188-4.8867188c-2.6953125,0-4.8876953,2.1923828-4.8876953,4.8867188   c0,2.6948242,2.1923828,4.887207,4.8876953,4.887207c0.4331055,0,0.8455811-0.0747681,1.2457275-0.1810303l1.2613525,2.1850586   c-9.9851074,6.1746216-16.654541,17.2203369-16.654541,29.7982178   C15.0615234,74.3203125,30.7685547,90.0273438,50.0751953,90.0273438z M70.9414062,15.4375   c1.5917969,0,2.8867188,1.2949219,2.8867188,2.8867188s-1.2949219,2.887207-2.8867188,2.887207   s-2.8876953-1.2954102-2.8876953-2.887207S69.3496094,15.4375,70.9414062,15.4375z M26.3212891,18.3242188   c0-1.5917969,1.2958984-2.8867188,2.8876953-2.8867188s2.8867188,1.2949219,2.8867188,2.8867188   s-1.2949219,2.887207-2.8867188,2.887207S26.3212891,19.9160156,26.3212891,18.3242188z M42.8486328,13.7099609   c0-0.9277344,0.7548828-1.6826172,1.6826172-1.6826172h11.0878906c0.9277344,0,1.6826172,0.7548828,1.6826172,1.6826172v4.1074219   c0,0.9277344-0.7548828,1.6826172-1.6826172,1.6826172H44.53125c-0.9277344,0-1.6826172-0.7543945-1.6826172-1.6821289V13.7099609z    M50.0751953,22c18.2041016,0,33.0136719,14.8100586,33.0136719,33.0136719S68.2792969,88.0273438,50.0751953,88.0273438   S17.0615234,73.2172852,17.0615234,55.0136719S31.8710938,22,50.0751953,22z"/><path d="M50.0751953,60.5205078c3.0361328,0,5.5068359-2.4702148,5.5068359-5.5068359   c0-2.6947021-1.9470215-4.9391479-4.5068359-5.411377v-9.1188965c0-0.5522461-0.4472656-1-1-1s-1,0.4477539-1,1v9.1188965   c-2.5598145,0.472229-4.5068359,2.7166748-4.5068359,5.411377C44.5683594,58.050293,47.0390625,60.5205078,50.0751953,60.5205078z    M50.0751953,51.5068359c1.9335938,0,3.5068359,1.5732422,3.5068359,3.5068359s-1.5732422,3.5068359-3.5068359,3.5068359   s-3.5068359-1.5732422-3.5068359-3.5068359S48.1416016,51.5068359,50.0751953,51.5068359z"/><path d="M26.0939941,41.2471924c-2.3383789,4.0576172-3.6838379,8.7564697-3.6838379,13.7664795   c0,5.0099487,1.345459,9.7086792,3.6837158,13.7661743c0.010498,0.0215454,0.0101318,0.0452881,0.0223389,0.0663452   c0.017334,0.0300903,0.0419922,0.0524902,0.0618896,0.0800171c2.4171143,4.1356812,5.8746338,7.5888062,10.0135498,10.0009766   c0.019165,0.0128784,0.0302734,0.0327759,0.0505371,0.0444946c0.0307617,0.0178223,0.0639648,0.0253906,0.0957031,0.0396118   c4.0500488,2.3275146,8.7375488,3.6663818,13.7346191,3.6668701c0.0009766,0,0.001709,0.0005493,0.0026855,0.0005493   s0.001709-0.0005493,0.0026855-0.0005493c4.9973145-0.0004883,9.6848145-1.3394775,13.7351074-3.6671753   c0.03125-0.0139771,0.0639648-0.0213623,0.0942383-0.0388184c0.0201416-0.0116577,0.0311279-0.0314331,0.0501709-0.0442505   c4.1412354-2.413208,7.6002197-5.8683472,10.0177002-10.0066528c0.0185547-0.026001,0.041748-0.046875,0.0581055-0.0750732   c0.0114746-0.0197754,0.0109863-0.0420532,0.0209961-0.0622559c2.3397217-4.0584106,3.6860352-8.758667,3.6860352-13.7702637   c0-5.0117188-1.3463135-9.7120361-3.6861572-13.7705688c-0.0098877-0.0200806-0.0095215-0.0422974-0.020874-0.0619507   c-0.0112305-0.0193481-0.0302734-0.0297852-0.0424805-0.0480957c-2.418457-4.1506958-5.8837891-7.6161499-10.0345459-10.034668   c-0.0186768-0.0124512-0.0292969-0.0318604-0.0489502-0.0432129c-0.0200195-0.0115356-0.0424805-0.0112305-0.0629883-0.0212402   c-4.0581055-2.3393555-8.7578125-3.6853027-13.769043-3.6853027s-9.7111816,1.3460693-13.7694092,3.6854858   c-0.0206299,0.0101929-0.043335,0.0098267-0.0635986,0.0215454c-0.0197754,0.0114136-0.0305176,0.0309448-0.0493164,0.043457   c-4.1489258,2.4178467-7.6130371,5.8817139-10.03125,10.0304565c-0.0131836,0.0195312-0.0334473,0.0308838-0.0454102,0.0515747   C26.1040039,41.2021484,26.1044922,41.225769,26.0939941,41.2471924z M36.3928223,33.3161621l1.1364746,1.9675293   c0.1855469,0.3208008,0.5214844,0.5,0.8671875,0.5c0.1699219,0,0.3417969-0.0429688,0.4990234-0.1342773   c0.4785156-0.2758789,0.6425781-0.8876953,0.3662109-1.3657227l-1.138916-1.9718018   c3.2945557-1.7416992,7.0102539-2.7858276,10.9523926-2.9378662v2.2802734c0,0.5522461,0.4472656,1,1,1s1-0.4477539,1-1v-2.2802734   c3.9418945,0.1520386,7.6574707,1.196106,10.9519043,2.9376221l-1.1384277,1.9720459   c-0.2763672,0.4785156-0.1123047,1.0898438,0.3662109,1.3662109c0.1572266,0.0908203,0.3291016,0.1337891,0.4990234,0.1337891   c0.3457031,0,0.6816406-0.1791992,0.8671875-0.5l1.1359863-1.9678345c3.2294922,2.0437012,5.9719238,4.7860718,8.015625,8.0154419   l-1.9680176,1.1364746c-0.4785156,0.2763672-0.6425781,0.8881836-0.3662109,1.3662109   c0.1855469,0.3208008,0.5214844,0.5,0.8671875,0.5c0.1699219,0,0.3417969-0.0429688,0.4990234-0.1337891l1.97229-1.138916   c1.7416992,3.2945557,2.7858887,7.0102539,2.9378662,10.9523926h-2.2802734c-0.5527344,0-1,0.4477539-1,1s0.4472656,1,1,1   h2.2802734c-0.1520996,3.9421387-1.1962891,7.6577759-2.9379883,10.9523315l-1.972168-1.138855   c-0.4785156-0.2768555-1.0888672-0.112793-1.3662109,0.3662109c-0.2763672,0.4780273-0.1123047,1.0898438,0.3662109,1.3662109   l1.9678955,1.1363525c-2.0438232,3.229248-4.7862549,5.9716187-8.015625,8.0151978l-1.1358643-1.9679565   c-0.2773438-0.4794922-0.8896484-0.6420898-1.3662109-0.3662109c-0.4785156,0.2763672-0.6425781,0.8876953-0.3662109,1.3662109   l1.1383057,1.972168c-3.2944336,1.7414551-7.0098877,2.7854614-10.9517822,2.9375v-2.2797852c0-0.5522461-0.4472656-1-1-1   s-1,0.4477539-1,1v2.2797852c-3.9421387-0.1520386-7.6577148-1.196106-10.9521484-2.9377441l1.1386719-1.9714355   c0.2763672-0.4780273,0.1123047-1.0898438-0.3662109-1.3657227c-0.4785156-0.2783203-1.0898438-0.112793-1.3662109,0.3657227   l-1.1362305,1.9672241c-3.2294922-2.0437012-5.9719238-4.7860107-8.015625-8.0153198l1.9672852-1.1359863   c0.4785156-0.2763672,0.6425781-0.8881836,0.3662109-1.3662109c-0.2773438-0.4790039-0.8896484-0.6430664-1.3662109-0.3662109   l-1.9714355,1.1383667c-1.7416992-3.2944336-2.7856445-7.0098877-2.9377441-10.9518433h2.2802734c0.5527344,0,1-0.4477539,1-1   s-0.4472656-1-1-1h-2.2802734c0.1519775-3.9420166,1.1960449-7.6574707,2.9376221-10.9519653l1.9715576,1.1384888   c0.1572266,0.0908203,0.3291016,0.1337891,0.4990234,0.1337891c0.3457031,0,0.6816406-0.1791992,0.8671875-0.5   c0.2763672-0.4780273,0.1123047-1.0898438-0.3662109-1.3662109l-1.9672852-1.1360474   C30.4210205,38.102356,33.1635742,35.3599243,36.3928223,33.3161621z"/></g></svg>