<svg xmlns="http://www.w3.org/2000/svg" xmlns:xlink="http://www.w3.org/1999/xlink" version="1.1" x="0px" y="0px" viewBox="0 0 100 125" style="enable-background:new 0 0 100 100;" xml:space="preserve"><path d="M17.6,42.1h7c0.6,0,1,0.4,1,1s-0.4,1-1,1h-7c-0.6,0-1-0.4-1-1S17.1,42.1,17.6,42.1z"/><path d="M12.4,61L28,87.9c0.1,0.2,0.4,0.4,0.6,0.5c0.1,0,0.2,0,0.3,0c0.2,0,0.3,0,0.5-0.1l63.1-36.8c0.2-0.1,0.4-0.4,0.5-0.6  c0.1-0.3,0-0.5-0.1-0.8l-5.4-9.2c0-0.1,0.1-0.2,0.1-0.2V19.5c0-0.6-0.4-1-1-1H13.5c-0.6,0-1,0.4-1,1v31.1c0,0.6,0.4,1,1,1h13  l-13.8,8C12.2,59.9,12.1,60.6,12.4,61z M28.7,49.6H14.5V20.5h14.2V49.6z M85.5,37.5l-5.5-9.4h0.8c0.6,0,1-0.4,1-1s-0.4-1-1-1h-1.9  c0,0,0,0,0,0l-1.7-3c-0.3-0.5-0.9-0.6-1.4-0.4l-5.7,3.3h-33c-0.6,0-1,0.4-1,1s0.4,1,1,1h29.6L61,31.5c-0.1,0-0.1,0-0.2,0H37.1  c-0.6,0-1,0.4-1,1s0.4,1,1,1h20.5L52,36.7c0,0-0.1,0-0.1,0H37.1c-0.6,0-1,0.4-1,1s0.4,1,1,1h11.5L42.9,42c-0.1,0-0.1,0-0.2,0h-5.6  c-0.6,0-1,0.4-1,1s0.4,1,1,1h2.4l-8.9,5.2V20.5h54.8V37.5z M43.3,77.9L28.6,52.7L76,25.1l14.7,25.1L43.3,77.9z M14.6,60.9l12.3-7.2  l14.7,25.1L29.3,86L14.6,60.9z"/><path d="M37,54.3l37.4-21.8c0.5-0.3,1.1-0.1,1.4,0.4c0.3,0.5,0.1,1.1-0.4,1.4L38,56.1c-0.2,0.1-0.3,0.1-0.5,0.1  c-0.3,0-0.7-0.2-0.9-0.5C36.3,55.2,36.5,54.6,37,54.3z"/><path d="M39.6,58.9l37.4-21.8c0.5-0.3,1.1-0.1,1.4,0.4c0.3,0.5,0.1,1.1-0.4,1.4L40.7,60.6c-0.2,0.1-0.3,0.1-0.5,0.1  c-0.3,0-0.7-0.2-0.9-0.5C39,59.8,39.2,59.2,39.6,58.9z"/><path d="M42.3,63.5l37.4-21.8c0.5-0.3,1.1-0.1,1.4,0.4c0.3,0.5,0.1,1.1-0.4,1.4L43.3,65.2c-0.2,0.1-0.3,0.1-0.5,0.1  c-0.3,0-0.7-0.2-0.9-0.5C41.7,64.4,41.8,63.7,42.3,63.5z"/><path d="M72.9,51.7l9.5-5.5c0.5-0.3,1.1-0.1,1.4,0.4c0.3,0.5,0.1,1.1-0.4,1.4l-9.5,5.5c-0.2,0.1-0.3,0.1-0.5,0.1  c-0.3,0-0.7-0.2-0.9-0.5C72.2,52.6,72.4,52,72.9,51.7z"/><path d="M58.9,59.9l9.5-5.5c0.5-0.3,1.1-0.1,1.4,0.4c0.3,0.5,0.1,1.1-0.4,1.4l-9.5,5.5c-0.2,0.1-0.3,0.1-0.5,0.1  c-0.3,0-0.7-0.2-0.9-0.5C58.3,60.8,58.4,60.2,58.9,59.9z"/><path d="M28.2,77.9l6-3.5c0.5-0.3,1.1-0.1,1.4,0.4c0.3,0.5,0.1,1.1-0.4,1.4l-6,3.5c-0.2,0.1-0.3,0.1-0.5,0.1c-0.3,0-0.7-0.2-0.9-0.5  C27.6,78.8,27.7,78.2,28.2,77.9z"/><path d="M45,68l9.5-5.5c0.5-0.3,1.1-0.1,1.4,0.4c0.3,0.5,0.1,1.1-0.4,1.4L46,69.8c-0.2,0.1-0.3,0.1-0.5,0.1c-0.3,0-0.7-0.2-0.9-0.5  C44.3,68.9,44.5,68.3,45,68z"/><path d="M29.3,63.5c0.1,0,0.1,0.1,0.1,0.2c0,0.1,0,0.3-0.1,0.3l-2,1.8l0.4,2.6c0,0.1,0,0.2-0.1,0.3c-0.1,0.1-0.2,0.1-0.3,0l-2.3-1.3  l-2.4,1.2c-0.2,0.1-0.5-0.1-0.5-0.4l0.5-2.6l-1.9-1.9c-0.1-0.1-0.1-0.2-0.1-0.3c0-0.1,0.1-0.2,0.3-0.2l2.7-0.3l1.2-2.4  c0.1-0.1,0.2-0.2,0.3-0.2c0.1,0,0.2,0.1,0.3,0.2l1.1,2.4l2.6,0.4C29.2,63.5,29.2,63.5,29.3,63.5z"/><path d="M23.1,34.8c0,0.1,0,0.1-0.1,0.1c0,0.1-0.1,0.1-0.2,0.1c-0.1,0-0.3,0-0.3-0.1l-1.8-1.9L18,33.5c-0.1,0-0.2,0-0.3-0.1  c-0.1-0.1-0.1-0.2,0-0.3l1.3-2.3l-1.2-2.4c-0.1-0.2,0.1-0.5,0.4-0.5l2.6,0.5l1.9-1.9c0.1-0.1,0.2-0.1,0.3-0.1c0.1,0,0.2,0.1,0.2,0.3  l0.3,2.7l2.4,1.2c0.1,0.1,0.2,0.2,0.2,0.3c0,0.1-0.1,0.2-0.2,0.3l-2.4,1.1L23.1,34.8z"/></svg>