<svg xmlns="http://www.w3.org/2000/svg" xmlns:xlink="http://www.w3.org/1999/xlink" version="1.1" x="0px" y="0px" viewBox="0 0 100 125" style="enable-background:new 0 0 100 100;" xml:space="preserve"><path d="M74.1,50.7c0-0.1-0.1-0.2-0.2-0.2l-1.1-0.2l-0.5-1c0-0.1-0.1-0.1-0.2-0.1c-0.1,0-0.2,0.1-0.2,0.1l-0.5,1l-1.1,0.2  c-0.1,0-0.2,0.1-0.2,0.2s0,0.2,0.1,0.3l0.8,0.8l-0.2,1.1c0,0.1,0,0.2,0.1,0.2c0.1,0.1,0.2,0.1,0.3,0l1-0.5l1,0.5c0,0,0.1,0,0.1,0  c0.1,0,0.1,0,0.1,0c0.1-0.1,0.1-0.1,0.1-0.2l-0.2-1.1L74,51C74.1,50.9,74.1,50.8,74.1,50.7z"/><path d="M48.2,28.9c-0.1,0.1-0.1,0.2,0,0.3l0.6,1.2l-0.6,1.2c0,0.1,0,0.2,0,0.3s0.2,0.1,0.2,0.1l1.3-0.2l0.9,0.9  c0,0,0.1,0.1,0.2,0.1c0,0,0.1,0,0.1,0c0.1,0,0.2-0.1,0.2-0.2l0.2-1.3l1.2-0.6c0.1,0,0.1-0.1,0.1-0.2c0-0.1-0.1-0.2-0.1-0.2l-1.2-0.6  l-0.2-1.3c0-0.1-0.1-0.2-0.2-0.2c-0.1,0-0.2,0-0.3,0.1l-0.9,1l-1.3-0.2C48.3,28.8,48.2,28.8,48.2,28.9z"/><path d="M50.8,24V12.6c0-0.6-0.4-1-1-1s-1,0.4-1,1V24c0,0.6,0.4,1,1,1S50.8,24.5,50.8,24z"/><path d="M41.9,19.4l2.1,5.7c0.1,0.4,0.5,0.7,0.9,0.7c0.1,0,0.2,0,0.3-0.1c0.5-0.2,0.8-0.8,0.6-1.3l-2.1-5.7  c-0.2-0.5-0.8-0.8-1.3-0.6C42,18.3,41.7,18.9,41.9,19.4z"/><path d="M41.1,12.2c-0.2-0.5-0.8-0.8-1.3-0.6c-0.5,0.2-0.8,0.8-0.6,1.3l1.4,3.4c0.2,0.4,0.5,0.6,0.9,0.6c0.1,0,0.2,0,0.4-0.1  c0.5-0.2,0.8-0.8,0.6-1.3L41.1,12.2z"/><path d="M29.1,14c-0.4,0.4-0.5,1-0.1,1.4l14.1,17.2c0.2,0.2,0.5,0.4,0.8,0.4c0.2,0,0.4-0.1,0.6-0.2c0.4-0.4,0.5-1,0.1-1.4L30.5,14.2  C30.1,13.7,29.5,13.7,29.1,14z"/><path d="M67.2,19l-11,12.2c-0.4,0.4-0.3,1,0.1,1.4c0.2,0.2,0.4,0.3,0.7,0.3c0.3,0,0.5-0.1,0.7-0.3l11-12.2c0.4-0.4,0.3-1-0.1-1.4  C68.2,18.6,67.5,18.6,67.2,19z"/><path d="M71.3,14.3l-1.7,1.9c-0.4,0.4-0.3,1,0.1,1.4c0.2,0.2,0.4,0.3,0.7,0.3c0.3,0,0.5-0.1,0.7-0.3l1.7-1.9c0.4-0.4,0.3-1-0.1-1.4  C72.3,13.9,71.7,13.9,71.3,14.3z"/><path d="M61.9,11.7c-0.5-0.2-1.1,0-1.3,0.5l-5.8,14.1c-0.2,0.5,0,1.1,0.5,1.3c0.1,0.1,0.3,0.1,0.4,0.1c0.4,0,0.8-0.2,0.9-0.6  L62.5,13C62.7,12.4,62.4,11.9,61.9,11.7z"/><path d="M33.1,32.7c0.1,0,0.1,0,0.1,0c0.1-0.1,0.1-0.1,0.1-0.2L33.1,31l1-1c0.1-0.1,0.1-0.2,0.1-0.3c0-0.1-0.1-0.2-0.2-0.2l-1.4-0.2  L32,28c0-0.1-0.1-0.1-0.2-0.1c-0.1,0-0.2,0.1-0.2,0.1l-0.7,1.3l-1.4,0.2c-0.1,0-0.2,0.1-0.2,0.2c0,0.1,0,0.2,0.1,0.3l1,1l-0.3,1.4  c0,0.1,0,0.2,0.1,0.2c0.1,0.1,0.2,0.1,0.3,0l1.3-0.6l1.3,0.7C33,32.7,33.1,32.7,33.1,32.7z"/><path d="M19.4,49.8l2.6-0.2l1.6,2c0,0.1,0.1,0.1,0.2,0.1c0,0,0,0,0.1,0c0.1,0,0.2-0.1,0.2-0.2l0.6-2.5l2.4-0.9  c0.1,0,0.2-0.1,0.2-0.2c0-0.1,0-0.2-0.1-0.2l-2.2-1.4l-0.1-2.6c0-0.1-0.1-0.2-0.1-0.2c-0.1,0-0.2,0-0.3,0l-2,1.7l-2.5-0.7  c-0.1,0-0.2,0-0.3,0.1c-0.1,0.1-0.1,0.2,0,0.3l1,2.4l-1.4,2.2c-0.1,0.1-0.1,0.2,0,0.3C19.2,49.8,19.3,49.8,19.4,49.8z"/><path d="M81.8,43.7c0-0.1,0-0.2-0.1-0.2l-2.2-1.4l-0.1-2.6c0-0.1-0.1-0.2-0.1-0.2c-0.1,0-0.2,0-0.3,0L77,41l-2.5-0.7  c-0.1,0-0.2,0-0.3,0.1c-0.1,0.1-0.1,0.2,0,0.3l1,2.4l-1.4,2.2c-0.1,0.1-0.1,0.2,0,0.3c0,0.1,0.1,0.1,0.2,0.1l2.6-0.2l1.6,2  c0,0.1,0.1,0.1,0.2,0.1c0,0,0,0,0.1,0c0.1,0,0.2-0.1,0.2-0.2l0.6-2.5l2.4-0.9C81.7,43.9,81.8,43.8,81.8,43.7z"/><path d="M33.9,89h31.7c0.6,0,1-0.4,1-1V36.1c0-0.6-0.4-1-1-1H33.9c-0.6,0-1,0.4-1,1V88C32.9,88.6,33.3,89,33.9,89z M34.9,37.1h29.7  V87H34.9V37.1z"/><path d="M49.7,58.1c-6.9,0-12.6,5.6-12.6,12.6c0,6.9,5.6,12.6,12.6,12.6s12.6-5.6,12.6-12.6C62.3,63.8,56.7,58.1,49.7,58.1z   M49.7,81.3c-5.8,0-10.6-4.8-10.6-10.6s4.8-10.6,10.6-10.6s10.6,4.8,10.6,10.6S55.6,81.3,49.7,81.3z"/><path d="M49.7,57.1c4.8,0,8.7-3.9,8.7-8.7s-3.9-8.7-8.7-8.7S41,43.6,41,48.4S44.9,57.1,49.7,57.1z M49.7,41.7c3.7,0,6.7,3,6.7,6.7  s-3,6.7-6.7,6.7s-6.7-3-6.7-6.7S46,41.7,49.7,41.7z"/><path d="M49.7,51.4c1.7,0,3.1-1.4,3.1-3.1s-1.4-3.1-3.1-3.1s-3.1,1.4-3.1,3.1S48,51.4,49.7,51.4z M49.7,47.3c0.6,0,1.1,0.5,1.1,1.1  c0,0.6-0.5,1.1-1.1,1.1c-0.6,0-1.1-0.5-1.1-1.1C48.7,47.8,49.1,47.3,49.7,47.3z"/><path d="M49.7,66.9c-2.1,0-3.8,1.7-3.8,3.8s1.7,3.8,3.8,3.8s3.8-1.7,3.8-3.8S51.8,66.9,49.7,66.9z M49.7,72.6c-1,0-1.8-0.8-1.8-1.8  c0-1,0.8-1.8,1.8-1.8c1,0,1.8,0.8,1.8,1.8C51.6,71.7,50.7,72.6,49.7,72.6z"/><path d="M83.6,23.8c0.9-0.2,1.3-0.8,1.3-0.9c0.3-0.5,0.1-1.1-0.3-1.4c-0.5-0.3-1.1-0.1-1.4,0.3c0,0-0.1,0-0.1,0  c-0.1,0-0.4,0-1.1-0.3c-1.6-1-2.3-1.2-3-0.8c-0.3,0.2-0.5,0.5-0.5,0.8l-0.7,6.8c-0.1,0-0.2-0.1-0.3-0.1c-1.3-0.1-2.4,0.8-2.6,2.1  s0.8,2.4,2.1,2.6c1.3,0.1,2.4-0.8,2.6-2.1c0,0,0-0.1,0-0.1c0-0.1,0-0.1,0-0.1l0.8-7.6c0.2,0.1,0.3,0.2,0.5,0.3  C81.9,23.8,82.8,24,83.6,23.8z"/><path d="M22.4,21.4c-0.3,0.1-0.6,0.3-0.7,0.6l0,0l-2.6,6.4c-0.1-0.1-0.2-0.1-0.3-0.2c-1.2-0.5-2.6,0.1-3,1.3c-0.5,1.2,0.1,2.6,1.3,3  c1.2,0.5,2.6-0.1,3-1.3c0,0,0-0.1,0-0.1c0,0,0.1-0.1,0.1-0.1l2.9-7.1c0.1,0.1,0.3,0.3,0.4,0.5c0.7,0.8,1.5,1.2,2.3,1.3  c0.9,0,1.5-0.4,1.6-0.5c0.4-0.4,0.4-1,0-1.4c-0.4-0.4-1-0.4-1.4,0c0,0-0.1,0-0.1,0c-0.1,0-0.4-0.1-0.9-0.6  C23.7,21.6,23.1,21.2,22.4,21.4z"/></svg>